<svg xmlns="http://www.w3.org/2000/svg" viewBox="0 0 1280 720" data-pptx-page-role="content" font-family="微软雅黑, PingFang SC, Noto Sans SC, Inter, sans-serif">
  <defs>
    <marker id="arrowhead" orient="auto" markerWidth="10" markerHeight="8" refX="9" refY="4">
      <polygon points="0 0, 10 4, 0 8" fill="#002FA7"/>
    </marker>
  </defs>
  <rect id="bg" x="0" y="0" width="1280" height="720" fill="#F7F8FA" data-pptx-role="background"/>
  <rect id="accent-bar" x="0" y="0" width="12" height="720" fill="#002FA7" data-pptx-role="decoration"/>

  <g id="header" data-pptx-bounds="64 44 1152 40">
    <text x="64" y="70" font-family="JetBrains Mono, Consolas, monospace" font-size="18" font-weight="500" letter-spacing="2" fill="#737373">WORKFLOW · 协作流程</text>
    <text x="1216" y="70" text-anchor="end" font-family="JetBrains Mono, Consolas, monospace" font-size="18" font-weight="500" letter-spacing="2" fill="#737373">07 / 12</text>
  </g>

  <g id="head" data-pptx-bounds="64 120 1152 130">
    <text x="68" y="170" font-family="JetBrains Mono, Consolas, monospace" font-size="18" font-weight="500" letter-spacing="4" fill="#002FA7">TASK DECOMPOSITION &amp; CONTEXT PASSING</text>
    <text x="64" y="240" font-size="44" font-weight="700" letter-spacing="1" fill="#1A1D24">一条工单，走完闭环</text>
  </g>

  <g id="flow" data-pptx-bounds="64 310 1152 200">
    <rect x="64" y="340" width="200" height="120" fill="none" stroke="#002FA7" stroke-width="2"/>
    <text x="164" y="382" text-anchor="middle" font-size="22" font-weight="500" fill="#002FA7">01 聚合工单</text>
    <text x="164" y="418" text-anchor="middle" font-size="18" fill="#737373">cs-gather</text>
    <text x="164" y="448" text-anchor="middle" font-size="18" fill="#1A1D24">标准工单 JSON</text>

    <line x1="264" y1="400" x2="296" y2="400" stroke="#002FA7" stroke-width="2" marker-end="url(#arrowhead)"/>

    <rect x="296" y="340" width="200" height="120" fill="none" stroke="#002FA7" stroke-width="2"/>
    <text x="396" y="382" text-anchor="middle" font-size="22" font-weight="500" fill="#002FA7">02 意图分级</text>
    <text x="396" y="418" text-anchor="middle" font-size="18" fill="#737373">cs-intent</text>
    <text x="396" y="448" text-anchor="middle" font-size="18" fill="#1A1D24">意图 + 槽位 + 紧急度</text>

    <line x1="496" y1="400" x2="528" y2="400" stroke="#002FA7" stroke-width="2" marker-end="url(#arrowhead)"/>

    <rect x="528" y="340" width="200" height="120" fill="#002FA7"/>
    <text x="628" y="382" text-anchor="middle" font-size="22" font-weight="500" fill="#FFFFFF">03 方案执行</text>
    <text x="628" y="418" text-anchor="middle" font-size="18" fill="#FFFFFF">cs-handler</text>
    <text x="628" y="448" text-anchor="middle" font-size="18" fill="#FFFFFF">± cs-approver 审批</text>

    <line x1="728" y1="400" x2="760" y2="400" stroke="#002FA7" stroke-width="2" marker-end="url(#arrowhead)"/>

    <rect x="760" y="340" width="200" height="120" fill="none" stroke="#002FA7" stroke-width="2"/>
    <text x="860" y="382" text-anchor="middle" font-size="22" font-weight="500" fill="#002FA7">04 核验确认</text>
    <text x="860" y="418" text-anchor="middle" font-size="18" fill="#737373">cs-verify</text>
    <text x="860" y="448" text-anchor="middle" font-size="18" fill="#1A1D24">核验 + 满意度确认</text>

    <line x1="960" y1="400" x2="992" y2="400" stroke="#002FA7" stroke-width="2" marker-end="url(#arrowhead)"/>

    <rect x="992" y="340" width="224" height="120" fill="none" stroke="#002FA7" stroke-width="2"/>
    <text x="1104" y="382" text-anchor="middle" font-size="22" font-weight="500" fill="#002FA7">05 复盘沉淀</text>
    <text x="1104" y="418" text-anchor="middle" font-size="18" fill="#737373">cs-review</text>
    <text x="1104" y="448" text-anchor="middle" font-size="18" fill="#1A1D24">知识反哺闭环</text>
  </g>

  <g id="context" data-pptx-bounds="64 540 1152 100">
    <rect x="64" y="540" width="1152" height="96" fill="#EDEFF3"/>
    <!-- icon: tabler-outline/message-circle -->
  <g transform="translate(88, 560) scale(1.66667)" fill="none" stroke="#002FA7" stroke-width="2">
    <path d="M3 20l1.3 -3.9c-2.324 -3.437 -1.426 -7.872 2.1 -10.374c3.526 -2.501 8.59 -2.296 11.845 .48c3.255 2.777 3.695 7.266 1.029 10.501c-2.666 3.235 -7.615 4.215 -11.574 2.293l-4.7 1" />
  </g>
    <text x="148" y="582" font-size="22" font-weight="500" fill="#1A1D24">上下文传递与状态追踪</text>
    <text x="148" y="616" font-size="20" fill="#737373">Matrix 房间消息流承载工单 / 中间结论 / 工具结果；state.json + MinIO 共享状态，任何 Agent 可查询工单进展</text>
  </g>

  <g id="footer" data-pptx-bounds="64 660 1152 30">
    <text x="64" y="680" font-family="JetBrains Mono, Consolas, monospace" font-size="18" fill="#737373">CONTEXT · STATE · TRACE</text>
    <text x="1216" y="680" text-anchor="end" font-family="JetBrains Mono, Consolas, monospace" font-size="18" fill="#737373">07 / 12</text>
  </g>
</svg>
